<?xml version="1.0" encoding="UTF-8" standalone="no"?>
<!-- Generator: Adobe Illustrator 15.1.0, SVG Export Plug-In . SVG Version: 6.00 Build 0)  -->

<svg
   xmlns:dc="http://purl.org/dc/elements/1.1/"
   xmlns:cc="http://creativecommons.org/ns#"
   xmlns:rdf="http://www.w3.org/1999/02/22-rdf-syntax-ns#"
   xmlns:svg="http://www.w3.org/2000/svg"
   xmlns="http://www.w3.org/2000/svg"
   xmlns:sodipodi="http://sodipodi.sourceforge.net/DTD/sodipodi-0.dtd"
   xmlns:inkscape="http://www.inkscape.org/namespaces/inkscape"
   version="1.1"
   id="svg3176"
   inkscape:version="0.91 r13725"
   sodipodi:docname="spotify.svg"
   x="0px"
   y="0px"
   width="250.99994"
   height="78.852089"
   viewBox="-206 -364.515 250.99994 78.852089"
   enable-background="new -206 -364.515 612 792"
   xml:space="preserve"><metadata
     id="metadata37"><rdf:RDF><cc:Work
         rdf:about=""><dc:format>image/svg+xml</dc:format><dc:type
           rdf:resource="http://purl.org/dc/dcmitype/StillImage" /><dc:title></dc:title></cc:Work></rdf:RDF></metadata><defs
     id="defs35" /><sodipodi:namedview
     showgrid="false"
     inkscape:zoom="0.49497475"
     borderopacity="1.0"
     inkscape:cy="7.9128892"
     bordercolor="#666666"
     inkscape:cx="342.97253"
     pagecolor="#ffffff"
     id="base"
     inkscape:window-y="-8"
     inkscape:window-x="-8"
     inkscape:window-height="706"
     inkscape:window-width="1366"
     fit-margin-right="0.5"
     fit-margin-bottom="0.5"
     inkscape:current-layer="g3128"
     inkscape:document-units="px"
     inkscape:pageshadow="2"
     inkscape:pageopacity="0.0"
     inkscape:window-maximized="1"
     fit-margin-top="0.5"
     fit-margin-left="0.5" /><g
     id="layer1"
     transform="translate(1246.6505,-1497.6321)"
     inkscape:label="Layer 1"
     inkscape:groupmode="layer"><g
       id="g3128"
       transform="matrix(0.37570303,0,0,0.37570303,-1141.6023,902.42898)"><g
         id="g3013"
         transform="matrix(0.1991992,0,0,0.1991992,-607.5723,641.78634)"
         style="fill:#cacbcc;fill-opacity:1"><path
           id="path3017"
           sodipodi:nodetypes="ccccccscccccccccccc"
           inkscape:connector-curvature="0"
           d="m 99.704,560.876 c -5.409,-4.123 -3.393,-8.482 -0.111,-12.266 l 46.721,-55.118 c 3.778,-4.176 7.366,-3.654 11.653,0.078 41.991,36.197 79.754,57.414 139.908,57.414 38.468,0 76.935,-14.693 76.935,-53.291 0,-12.657 -4.241,-23.462 -11.757,-31.082 -48.45,-49.115 -248.232,-23.723 -248.232,-178.957 0,-67.938 49.396,-142.766 166.717,-142.766 71.742,0 126.051,24.995 168.629,57.982 6.407,5.069 4.828,8.593 1.696,12.475 l -41.195,58.197 c -3.967,5.089 -6.642,5.193 -14.119,0 -24.101,-18.588 -65.661,-43.465 -117.543,-43.465 -42.754,0 -70.28,19.456 -70.28,50.603 0,92.783 259.996,33.281 259.996,210.045 0,85.6 -66.261,144.815 -172.113,144.815 -74.776,0.001 -139.21,-25.314 -196.905,-74.664 z"
           style="fill:#cacbcc;fill-opacity:1" /><path
           id="path3019"
           inkscape:connector-curvature="0"
           d="m 704.303,258.602 c -57.245,0 -86.774,25.856 -112.519,53.389 l 0,-38.435 c 0,-5.03 -2.036,-7.418 -7.229,-7.418 l -76.309,0 c -7.842,0 -8.795,1.964 -8.795,8.795 l 0,452.889 c 0,5.193 2.049,7.542 7.529,7.542 l 76.009,0 c 5.846,0 8.795,-1.853 8.795,-8.795 l 0,-141.527 c 19.677,25.288 58.758,51.229 112.167,51.229 83.799,0 170.051,-62.269 170.051,-188.45 0,-134.147 -93.807,-189.219 -169.699,-189.219 z m -18.424,82.057 c 47.367,0 94.394,37.254 94.394,107.841 0,63.208 -41.299,105.799 -94.394,105.799 -57.049,0 -95.986,-50.629 -95.986,-106.425 -10e-4,-55.425 36.431,-107.215 95.986,-107.215 z"
           style="fill:#cacbcc;fill-opacity:1" /><g
           id="flowRoot3023"
           transform="matrix(13.258321,0,0,13.518561,-7360.2406,-3893.01)"
           style="fill:#cacbcc;fill-opacity:1"><path
             id="path3032"
             sodipodi:nodetypes="ccccccccssssssssccccccccc"
             inkscape:connector-curvature="0"
             d="m 652.056,321.117 0,-0.1 c 0,-1.944 -0.369,-3.761 -1.107,-5.452 -0.736,-1.692 -1.749,-3.166 -3.039,-4.423 -1.29,-1.256 -2.823,-2.244 -4.599,-2.964 -1.776,-0.72 -3.702,-1.08 -5.778,-1.08 -2.11,0 -4.054,0.368 -5.829,1.105 -1.776,0.736 -3.316,1.741 -4.622,3.014 -1.308,1.274 -2.33,2.757 -3.067,4.448 -0.736,1.69 -1.105,3.51 -1.105,5.452 l 0,0.098 c 0,1.944 0.369,3.763 1.105,5.456 0.737,1.691 1.751,3.164 3.041,4.421 1.289,1.257 2.823,2.245 4.598,2.965 1.776,0.718 3.702,1.079 5.779,1.079 2.11,0 4.053,-0.367 5.828,-1.104 1.775,-0.737 3.316,-1.743 4.624,-3.015 1.306,-1.272 2.328,-2.755 3.064,-4.448 0.738,-1.691 1.107,-3.51 1.107,-5.452 l 0,0 z m -14.539,7.934 c -5.002,0 -7.653,-4.334 -7.653,-8.002 0,-4.53 3.252,-7.859 7.543,-7.859 3.768,0 7.669,2.93 7.669,8.026 0,4.909 -3.636,7.835 -7.559,7.835 l 0,0 z"
             style="fill:#cacbcc;fill-opacity:1" /></g><path
           id="path3034"
           sodipodi:nodetypes="ccccccccccccccccccccccccc"
           inkscape:connector-curvature="0"
           d="m 1465.566,551.246 c 20.16,0 35.375,-6.707 42.852,-10.1 7.203,-4.019 12.383,-2.062 12.383,5.768 l 0,62.791 c 0,3.862 -2.114,6.002 -5.441,7.829 -20.369,10.204 -40.895,17.485 -73.686,17.485 -71.729,0 -106.791,-39.042 -106.791,-106.947 l 0,-180.915 -37.711,0 c -4.867,0 -6.263,-2.558 -6.263,-6.289 l 0,-69.719 c 0,-3.203 1.592,-5.024 5.024,-5.024 l 38.95,0 0,-88.568 c 0,-4.117 1.37,-7.542 7.529,-7.542 l 76.622,0 c 6.655,0 8.808,2.845 8.808,8.795 l 0,87.316 87.557,0 c 3.836,0 6.655,2.01 6.655,7.529 l 0,65.961 c 0,5.141 -2.349,7.542 -7.542,7.542 l -86.67,0 0,164.577 c 0,22.051 6.316,39.511 37.724,39.511 z"
           style="fill:#cacbcc;fill-opacity:1" /><path
           id="path3036"
           sodipodi:nodetypes="ccccccccc"
           inkscape:connector-curvature="0"
           d="m 1566.028,628.573 c -4.958,0 -7.529,-2.375 -7.529,-7.542 l 0,-347.377 c 0,-4.835 2.049,-7.529 7.529,-7.529 l 77.757,0 c 5.872,0 7.673,3.288 7.673,7.601 l 0,347.304 c 0,5.898 -2.623,7.542 -7.542,7.542 l -77.888,0 z"
           style="fill:#cacbcc;fill-opacity:1" /><circle
           id="path3038"
           style="fill:#cacbcc;fill-opacity:1"
           cx="1331.2548"
           cy="176.18112"
           r="19.319168" /><path
           id="path3040"
           sodipodi:nodetypes="ccccccccccccccccccccccccccccccccccccc"
           inkscape:connector-curvature="0"
           d="m 1739.394,628.573 c -4.345,0 -6.263,-2.375 -6.263,-6.289 l 0,-275.127 -37.711,0 -6.276,-6.289 0,-68.343 c 0,-4.293 1.292,-6.4 6.276,-6.4 l 37.711,0 0,-16.957 c 0,-67.018 27.063,-121.529 113.928,-121.529 26.802,0 54.491,6.348 64.878,8.854 4.397,1.351 5.859,3.269 5.859,7.144 l 0,66.581 c 0,6.792 -4.867,8.018 -13.401,4.959 -6.55,-2.251 -22.157,-6.694 -39.238,-6.694 -32.217,0 -41.586,19.038 -41.586,48.215 l 0,9.428 136.92,0 c 3.81,0 5.506,1.54 7.633,7.138 l 92.281,241.995 83.916,-240.442 c 2.231,-6.126 3.51,-8.064 8.403,-8.064 l 81.646,0 c 7.881,0 7.816,5.48 4.71,12.977 l -136.79,354.717 c -20.356,46.741 -40.333,102.693 -121.758,102.693 -38.95,0 -59.972,-9.186 -85.756,-21.295 -5.989,-2.714 -3.301,-8.717 -0.052,-14.823 l 23.749,-52.221 c 2.74,-6.055 6.824,-5.246 12.188,-2.636 6.459,3.236 22.848,11.3 41.221,11.3 23.762,0 33.744,-15.11 43.048,-34.501 l -114.724,-275.804 -75.383,0 0,275.126 c 0,4.071 -1.957,6.289 -6.289,6.289 l -79.14,0 z"
           style="fill:#cacbcc;fill-opacity:1" /><g
           id="g3099"
           transform="matrix(0.55912573,0,0,0.55912573,-580.3448,-883.96648)"
           style="fill:#cacbcc;fill-opacity:1"><path
             id="path3103"
             sodipodi:nodetypes="cccccccccccc"
             inkscape:connector-curvature="0"
             d="m -568.144,2521.424 3.151,30.712 23.746,11.062 c 1.365,-36.453 24.003,-58.531 53.898,-63.899 94.704,-20.537 211.218,-40.281 346.95,-40.281 213.412,0 397.523,52.977 546.488,143.807 22.007,13.349 29.207,30.012 32.346,52.09 l 82.744,-53.583 -20.911,-82.429 -617.75,-165.745 -577.562,73.654 126.9,94.612 z"
             style="fill:#cacbcc;fill-opacity:1;stroke:#008080;stroke-width:0.25" /><path
             id="path3105"
             sodipodi:nodetypes="cccccccccc"
             inkscape:connector-curvature="0"
             d="m -607.164,2291.641 28.04,-10.584 c 0.98,-35.147 19.942,-64.365 60.491,-75.427 104.88,-30.806 228.08,-50.106 362.645,-50.106 258.139,0 494.725,67.609 667.552,171.824 27.667,16.99 38.274,29.546 43.502,74.027 l 127.109,-69.873 -533.885,-249.784 -892.563,52.078 137.109,157.845 z"
             style="fill:#cacbcc;fill-opacity:1;stroke:#000080;stroke-width:0.25" /><path
             id="path3107"
             sodipodi:nodetypes="ccccccccc"
             inkscape:connector-curvature="0"
             d="m -642.323,1995.111 c -2.836,-52.51 24.703,-90.305 65.077,-101.916 132.722,-38.531 275.058,-57.446 443.23,-57.446 279.726,0 560.747,58.554 766.329,177.32 40.409,21.984 52.078,51.506 54.272,96.641 l 127.576,-84.226 -382.937,-323.753 -1171.951,125.475 98.404,167.905 z"
             style="fill:#cacbcc;fill-opacity:1;stroke:#000000;stroke-width:0.25" /><radialGradient
             id="path3101_1_"
             cx="128476.75"
             cy="42528.328"
             r="930.27173"
             gradientTransform="matrix(0,0.0676,0.0563,0,-2371.5356,-6881.9585)"
             gradientUnits="userSpaceOnUse"><stop
               offset="0"
               style="stop-color:#A9D03F"
               id="stop20" /><stop
               offset="0.0711"
               style="stop-color:#A9D03F"
               id="stop22" /><stop
               offset="0.2468"
               style="stop-color:#A1CC3E"
               id="stop24" /><stop
               offset="0.4557"
               style="stop-color:#94C93D"
               id="stop26" /><stop
               offset="0.5966"
               style="stop-color:#8DC540"
               id="stop28" /><stop
               offset="0.7966"
               style="stop-color:#84BC41"
               id="stop30" /><stop
               offset="1"
               style="stop-color:#79B641"
               id="stop32" /></radialGradient><path
             id="path3101"
             inkscape:connector-curvature="0"
             d="m 1.869,1343.604 c -513.757,0 -930.265,416.473 -930.265,930.242 0,513.769 416.508,930.253 930.265,930.253 513.792,0 930.288,-416.485 930.288,-930.253 0,-513.768 -416.497,-930.242 -930.288,-930.242 z m -136.491,485.518 c 273.168,0 560.56,56.186 770.507,179.49 28.285,16.021 47.936,40.199 47.936,84.482 0,50.713 -40.771,87.143 -87.761,87.143 -18.939,0 -30.176,-4.597 -47.936,-14.306 -168.37,-100.971 -429.683,-156.573 -682.395,-156.573 -126.14,0 -254.265,12.824 -371.63,44.669 -13.513,3.396 -30.584,10.175 -47.702,10.175 -49.616,0 -87.691,-39.254 -87.691,-88.882 0,-50.561 31.331,-78.94 65.136,-88.928 132.603,-39.067 280.622,-57.27 441.536,-57.27 z m -18.962,319.657 c 243.506,0 479.065,60.632 664.262,171.474 31.039,17.83 42.475,40.374 42.475,73.514 0,40.281 -32.066,72.814 -72.499,72.814 -20.187,0 -32.895,-8.122 -46.605,-16.103 -151.333,-89.803 -361.058,-149.455 -590.724,-149.455 -117.809,0 -219.491,16.477 -303.635,38.881 -18.133,4.994 -28.297,10.362 -45.264,10.362 -40.024,0 -72.662,-32.626 -72.662,-72.942 0,-39.534 19.172,-66.769 57.854,-77.691 104.575,-28.707 211.357,-50.854 366.798,-50.854 z m 12.766,303.798 c 203.563,0 384.979,46.676 541.085,140.26 23.244,13.536 36.874,27.398 36.874,61.798 0,33.56 -27.27,58.204 -57.854,58.204 -15.065,0 -25.321,-5.228 -39.382,-13.816 -134.834,-81.542 -302.935,-124.39 -481.352,-124.39 -99.535,0 -199.724,12.742 -293.425,32.206 -15.228,3.314 -34.4,9.242 -45.859,9.242 -35.322,0 -58.881,-28.099 -58.881,-58.484 0,-39.114 22.544,-58.531 50.608,-63.899 114.89,-26.184 229.327,-41.121 348.186,-41.121 z"
             style="fill:#cacbcc;fill-opacity:1" /></g></g></g></g></svg>